<?xml version="1.0" encoding="UTF-8" standalone="no" ?>
<!DOCTYPE svg PUBLIC "-//W3C//DTD SVG 1.1//EN" "http://www.w3.org/Graphics/SVG/1.1/DTD/svg11.dtd">
<svg xmlns="http://www.w3.org/2000/svg" xmlns:xlink="http://www.w3.org/1999/xlink" version="1.1" width="1080" height="1080" viewBox="0 0 1080 1080" xml:space="preserve">
<desc>Created with Fabric.js 5.2.4</desc>
<defs>
</defs>
<g transform="matrix(1 0 0 1 540 540)" id="acaab924-6108-488e-9406-8cf49db68a2e"  >
<rect style="stroke: none; stroke-width: 1; stroke-dasharray: none; stroke-linecap: butt; stroke-dashoffset: 0; stroke-linejoin: miter; stroke-miterlimit: 4; fill: rgb(255,255,255); fill-rule: nonzero; opacity: 1; visibility: hidden;" vector-effect="non-scaling-stroke"  x="-540" y="-540" rx="0" ry="0" width="1080" height="1080" />
</g>
<g transform="matrix(1 0 0 1 540 540)" id="36c950fe-4ed6-4445-a8e9-2878e78b27cc"  >
</g>
<g transform="matrix(1.74 0 0 2.24 539.41 538.08)"  >
<g style="" vector-effect="non-scaling-stroke"   >
		<g transform="matrix(33.33 0 0 33.33 0 50)"  >
<path style="stroke: #fffffe; stroke-width: 1.5; stroke-dasharray: none; stroke-linecap: round; stroke-dashoffset: 0; stroke-linejoin: round; stroke-miterlimit: 4; fill: none; fill-rule: nonzero; opacity: 1;" vector-effect="non-scaling-stroke"  transform=" translate(-12, -13.5)" d="M 15 19 L 9 19 L 9 12.5 L 9 8.6 C 9 8.26863 9.26863 8 9.6 8 L 14.4 8 C 14.7314 8 15 8.26863 15 8.6 L 15 14.5 L 15 19 Z" stroke-linecap="round" />
</g>
		<g transform="matrix(33.33 0 0 33.33 0 -233.33)"  >
<path style="stroke: #fffffe; stroke-width: 1.5; stroke-dasharray: none; stroke-linecap: round; stroke-dashoffset: 0; stroke-linejoin: round; stroke-miterlimit: 4; fill: none; fill-rule: nonzero; opacity: 1;" vector-effect="non-scaling-stroke"  transform=" translate(-12, -5)" d="M 15 5 L 9 5" stroke-linecap="round" />
</g>
		<g transform="matrix(33.33 0 0 33.33 200 158.33)"  >
<path style="stroke: #fffffe; stroke-width: 1.5; stroke-dasharray: none; stroke-linecap: round; stroke-dashoffset: 0; stroke-linejoin: round; stroke-miterlimit: 4; fill: none; fill-rule: nonzero; opacity: 1;" vector-effect="non-scaling-stroke"  transform=" translate(-18, -16.75)" d="M 20.4 19 L 15 19 L 15 15.1 C 15 14.7686 15.2686 14.5 15.6 14.5 L 20.4 14.5 C 20.7314 14.5 21 14.7686 21 15.1 L 21 18.4 C 21 18.7314 20.7314 19 20.4 19 Z" stroke-linecap="round" />
</g>
		<g transform="matrix(33.33 0 0 33.33 -200 125)"  >
<path style="stroke: #fffffe; stroke-width: 1.5; stroke-dasharray: none; stroke-linecap: round; stroke-dashoffset: 0; stroke-linejoin: round; stroke-miterlimit: 4; fill: none; fill-rule: nonzero; opacity: 1;" vector-effect="non-scaling-stroke"  transform=" translate(-6, -15.75)" d="M 9 19 L 9 13.1 C 9 12.7686 8.73137 12.5 8.4 12.5 L 3.6 12.5 C 3.26863 12.5 3 12.7686 3 13.1 L 3 18.4 C 3 18.7314 3.26863 19 3.6 19 L 9 19 Z" stroke-linecap="round" />
</g>
</g>
</g>
</svg>